# Blender v2.80 (sub 75) OBJ File: 'Ingredients.blend'
# www.blender.org
mtllib bread.mtl
g Bread_Cube
v 1.170000 0.150000 -1.000000
v 1.170000 -0.150000 -1.000000
v 1.170000 0.150000 1.000000
v 1.170000 -0.150000 1.000000
v -1.170000 0.150000 -1.000000
v -1.170000 -0.150000 -1.000000
v -1.170000 0.150000 1.000000
v -1.170000 -0.150000 1.000000
v -0.050000 -0.150000 0.000000
v -0.050000 0.150000 0.000000
v -0.068254 -0.150000 0.253617
v -0.068254 0.150000 0.253617
v -0.122314 -0.150000 0.497488
v -0.122314 0.150000 0.497488
v -0.210104 -0.150000 0.722241
v -0.210104 0.150000 0.722241
v -0.328249 -0.150000 0.919239
v -0.328249 0.150000 0.919239
v -0.472208 -0.150000 1.080910
v -0.472208 0.150000 1.080910
v -0.636451 -0.150000 1.201043
v -0.636451 0.150000 1.201043
v -0.814664 -0.150000 1.275021
v -0.814664 0.150000 1.275021
v -1.000000 -0.150000 1.300000
v -1.000000 0.150000 1.300000
v -1.185336 -0.150000 1.275021
v -1.185336 0.150000 1.275021
v -1.363549 -0.150000 1.201043
v -1.363549 0.150000 1.201043
v -1.527792 -0.150000 1.080910
v -1.527792 0.150000 1.080910
v -1.671752 -0.150000 0.919239
v -1.671752 0.150000 0.919239
v -1.789896 -0.150000 0.722241
v -1.789896 0.150000 0.722241
v -1.877686 -0.150000 0.497488
v -1.877686 0.150000 0.497488
v -1.931746 -0.150000 0.253617
v -1.931746 0.150000 0.253617
v -1.950000 -0.150000 -0.000000
v -1.950000 0.150000 -0.000000
v -1.931746 -0.150000 -0.253618
v -1.931746 0.150000 -0.253618
v -1.877686 -0.150000 -0.497489
v -1.877686 0.150000 -0.497489
v -1.789896 -0.150000 -0.722242
v -1.789896 0.150000 -0.722242
v -1.671751 -0.150000 -0.919239
v -1.671751 0.150000 -0.919239
v -1.527791 -0.150000 -1.080911
v -1.527791 0.150000 -1.080911
v -1.363549 -0.150000 -1.201044
v -1.363549 0.150000 -1.201044
v -1.185335 -0.150000 -1.275021
v -1.185335 0.150000 -1.275021
v -0.999999 -0.150000 -1.300000
v -0.999999 0.150000 -1.300000
v -0.814663 -0.150000 -1.275020
v -0.814663 0.150000 -1.275020
v -0.636450 -0.150000 -1.201043
v -0.636450 0.150000 -1.201043
v -0.472207 -0.150000 -1.080909
v -0.472207 0.150000 -1.080909
v -0.328248 -0.150000 -0.919237
v -0.328248 0.150000 -0.919237
v -0.210103 -0.150000 -0.722240
v -0.210103 0.150000 -0.722240
v -0.122314 -0.150000 -0.497487
v -0.122314 0.150000 -0.497487
v -0.068254 -0.150000 -0.253615
v -0.068254 0.150000 -0.253615
vt 0.375000 0.000000
vt 0.625000 0.000000
vt 0.625000 0.250000
vt 0.375000 0.250000
vt 0.375000 0.500000
vt 0.625000 0.500000
vt 0.625000 0.750000
vt 0.375000 0.750000
vt 0.625000 0.750000
vt 0.625000 1.000000
vt 0.375000 1.000000
vt 1.000000 0.500000
vt 1.000000 1.000000
vt 0.968750 1.000000
vt 0.968750 0.500000
vt 0.937500 1.000000
vt 0.937500 0.500000
vt 0.906250 1.000000
vt 0.906250 0.500000
vt 0.875000 1.000000
vt 0.875000 0.500000
vt 0.093750 0.500000
vt 0.093750 1.000000
vt 0.062500 1.000000
vt 0.062500 0.500000
vt 0.296822 0.485388
vt 0.250000 0.490000
vt 0.203179 0.485389
vt 0.158156 0.471731
vt 0.116663 0.449553
vt 0.080295 0.419706
vt 0.050447 0.383337
vt 0.028269 0.341844
vt 0.014612 0.296822
vt 0.010000 0.250000
vt 0.014611 0.203179
vt 0.028269 0.158156
vt 0.050447 0.116663
vt 0.080294 0.080294
vt 0.116663 0.050447
vt 0.158156 0.028269
vt 0.203178 0.014612
vt 0.250000 0.010000
vt 0.296822 0.014612
vt 0.341844 0.028269
vt 0.383337 0.050447
vt 0.419706 0.080294
vt 0.449553 0.116663
vt 0.471731 0.158156
vt 0.485388 0.203178
vt 0.490000 0.250000
vt 0.485388 0.296822
vt 0.471731 0.341844
vt 0.449553 0.383337
vt 0.419706 0.419706
vt 0.383337 0.449553
vt 0.341844 0.471731
vt 0.031250 1.000000
vt 0.031250 0.500000
vt 0.000000 1.000000
vt 0.000000 0.500000
vt 0.750000 0.490000
vt 0.796822 0.485388
vt 0.841844 0.471731
vt 0.883337 0.449553
vt 0.919706 0.419706
vt 0.949553 0.383337
vt 0.971731 0.341844
vt 0.985388 0.296822
vt 0.990000 0.250000
vt 0.985388 0.203178
vt 0.971731 0.158156
vt 0.949553 0.116663
vt 0.919706 0.080294
vt 0.883337 0.050447
vt 0.841844 0.028269
vt 0.796822 0.014612
vt 0.750000 0.010000
vt 0.703178 0.014612
vt 0.658156 0.028269
vt 0.616663 0.050447
vt 0.580294 0.080294
vt 0.550447 0.116663
vt 0.528269 0.158156
vt 0.514611 0.203179
vt 0.510000 0.250000
vt 0.514612 0.296822
vt 0.528269 0.341844
vt 0.550447 0.383337
vt 0.580295 0.419706
vt 0.616663 0.449553
vt 0.658156 0.471731
vt 0.703179 0.485389
vt 0.375000 0.250000
vt 0.625000 0.250000
vt 0.125000 0.500000
vt 0.375000 0.500000
vt 0.375000 0.750000
vt 0.125000 0.750000
vt 0.625000 0.500000
vt 0.875000 0.500000
vt 0.875000 0.750000
vt 0.843750 1.000000
vt 0.843750 0.500000
vt 0.812500 1.000000
vt 0.812500 0.500000
vt 0.781250 1.000000
vt 0.781250 0.500000
vt 0.750000 1.000000
vt 0.750000 0.500000
vt 0.718750 1.000000
vt 0.718750 0.500000
vt 0.687500 1.000000
vt 0.687500 0.500000
vt 0.656250 1.000000
vt 0.656250 0.500000
vt 0.625000 1.000000
vt 0.625000 0.500000
vt 0.593750 1.000000
vt 0.593750 0.500000
vt 0.562500 1.000000
vt 0.562500 0.500000
vt 0.531250 1.000000
vt 0.531250 0.500000
vt 0.500000 1.000000
vt 0.500000 0.500000
vt 0.468750 1.000000
vt 0.468750 0.500000
vt 0.437500 1.000000
vt 0.437500 0.500000
vt 0.406250 1.000000
vt 0.406250 0.500000
vt 0.375000 1.000000
vt 0.375000 0.500000
vt 0.343750 1.000000
vt 0.343750 0.500000
vt 0.312500 1.000000
vt 0.312500 0.500000
vt 0.281250 1.000000
vt 0.281250 0.500000
vt 0.250000 1.000000
vt 0.250000 0.500000
vt 0.218750 1.000000
vt 0.218750 0.500000
vt 0.187500 1.000000
vt 0.187500 0.500000
vt 0.156250 1.000000
vt 0.156250 0.500000
vt 0.125000 1.000000
vt 0.125000 0.500000
vn 0.0000 1.0000 0.0000
vn -1.0000 0.0000 0.0000
vn 0.0000 -1.0000 0.0000
vn 0.9974 0.0000 0.0718
vn 0.9763 0.0000 0.2164
vn 0.9315 0.0000 0.3638
vn 0.8576 0.0000 0.5143
vn 0.9315 0.0000 -0.3638
vn 0.9763 0.0000 -0.2164
vn 0.9974 0.0000 -0.0718
vn 0.0000 0.0000 1.0000
vn 1.0000 0.0000 0.0000
vn 0.0000 0.0000 -1.0000
vn 0.7468 0.0000 0.6650
vn 0.5904 0.0000 0.8071
vn 0.3834 0.0000 0.9236
vn 0.1336 0.0000 0.9910
vn -0.1336 0.0000 0.9910
vn -0.3834 0.0000 0.9236
vn -0.5904 0.0000 0.8071
vn -0.7468 0.0000 0.6650
vn -0.8576 0.0000 0.5143
vn -0.9315 0.0000 0.3638
vn -0.9763 0.0000 0.2164
vn -0.9974 0.0000 0.0718
vn -0.9974 0.0000 -0.0718
vn -0.9763 0.0000 -0.2164
vn -0.9315 0.0000 -0.3638
vn -0.8576 0.0000 -0.5143
vn -0.7468 0.0000 -0.6650
vn -0.5904 0.0000 -0.8071
vn -0.3834 0.0000 -0.9236
vn -0.1336 0.0000 -0.9910
vn 0.1336 0.0000 -0.9910
vn 0.3834 0.0000 -0.9236
vn 0.5904 0.0000 -0.8071
vn 0.7468 0.0000 -0.6650
vn 0.8576 0.0000 -0.5143
usemtl Material.000
s off
f 1/1/1 5/2/1 7/3/1 3/4/1
f 8/5/2 7/6/2 5/7/2 6/8/2
f 6/8/3 2/9/3 4/10/3 8/11/3
f 9/12/4 10/13/4 12/14/4 11/15/4
f 11/15/5 12/14/5 14/16/5 13/17/5
f 13/17/6 14/16/6 16/18/6 15/19/6
f 15/19/7 16/18/7 18/20/7 17/21/7
f 67/22/8 68/23/8 70/24/8 69/25/8
f 12/26/1 10/27/1 72/28/1 70/29/1 68/30/1 66/31/1 64/32/1 62/33/1 60/34/1 58/35/1 56/36/1 54/37/1 52/38/1 50/39/1 48/40/1 46/41/1 44/42/1 42/43/1 40/44/1 38/45/1 36/46/1 34/47/1 32/48/1 30/49/1 28/50/1 26/51/1 24/52/1 22/53/1 20/54/1 18/55/1 16/56/1 14/57/1
f 69/25/9 70/24/9 72/58/9 71/59/9
f 71/59/10 72/58/10 10/60/10 9/61/10
f 9/62/3 11/63/3 13/64/3 15/65/3 17/66/3 19/67/3 21/68/3 23/69/3 25/70/3 27/71/3 29/72/3 31/73/3 33/74/3 35/75/3 37/76/3 39/77/3 41/78/3 43/79/3 45/80/3 47/81/3 49/82/3 51/83/3 53/84/3 55/85/3 57/86/3 59/87/3 61/88/3 63/89/3 65/90/3 67/91/3 69/92/3 71/93/3
usemtl Material.003
f 4/94/11 3/95/11 7/6/11 8/5/11
f 2/96/12 1/97/12 3/98/12 4/99/12
f 6/100/13 5/101/13 1/102/13 2/9/13
f 17/21/14 18/20/14 20/103/14 19/104/14
f 19/104/15 20/103/15 22/105/15 21/106/15
f 21/106/16 22/105/16 24/107/16 23/108/16
f 23/108/17 24/107/17 26/109/17 25/110/17
f 25/110/18 26/109/18 28/111/18 27/112/18
f 27/112/19 28/111/19 30/113/19 29/114/19
f 29/114/20 30/113/20 32/115/20 31/116/20
f 31/116/21 32/115/21 34/117/21 33/118/21
f 33/118/22 34/117/22 36/119/22 35/120/22
f 35/120/23 36/119/23 38/121/23 37/122/23
f 37/122/24 38/121/24 40/123/24 39/124/24
f 39/124/25 40/123/25 42/125/25 41/126/25
f 41/126/26 42/125/26 44/127/26 43/128/26
f 43/128/27 44/127/27 46/129/27 45/130/27
f 45/130/28 46/129/28 48/131/28 47/132/28
f 47/132/29 48/131/29 50/133/29 49/134/29
f 49/134/30 50/133/30 52/135/30 51/136/30
f 51/136/31 52/135/31 54/137/31 53/138/31
f 53/138/32 54/137/32 56/139/32 55/140/32
f 55/140/33 56/139/33 58/141/33 57/142/33
f 57/142/34 58/141/34 60/143/34 59/144/34
f 59/144/35 60/143/35 62/145/35 61/146/35
f 61/146/36 62/145/36 64/147/36 63/148/36
f 63/148/37 64/147/37 66/149/37 65/150/37
f 65/150/38 66/149/38 68/23/38 67/22/38
