# Blender v2.80 (sub 75) OBJ File: ''
# www.blender.org
mtllib chicken.mtl
o Cylinder
v -0.066733 -0.059545 -1.152672
v -0.114983 0.322849 -1.068158
v 0.210891 -0.189744 -1.046325
v 0.205460 0.126227 -1.069731
v 0.388282 -0.127150 -0.921564
v 0.398420 0.111085 -0.959319
v 0.568943 -0.133264 -0.835974
v 0.581926 0.121741 -0.864874
v 0.719384 -0.123005 -0.707573
v 0.713820 0.078532 -0.694403
v 0.848227 -0.127775 -0.559276
v 0.776689 0.312818 -0.661699
v 0.946681 -0.135982 -0.389957
v 1.068401 0.163315 -0.451861
v 1.005824 -0.142954 -0.198836
v 1.031286 0.052244 -0.206042
v 1.009750 -0.130922 0.016039
v 1.047433 0.111751 -0.043632
v 0.980723 -0.113834 0.212282
v 1.117620 0.170475 0.204307
v 0.937897 -0.118225 0.373411
v 0.942724 0.086086 0.372574
v 0.877432 -0.141358 0.502486
v 0.893568 0.092169 0.534766
v 0.752724 -0.145865 0.660360
v 0.755595 0.148473 0.738183
v 0.557794 -0.102630 0.829676
v 0.669226 0.275131 0.972695
v 0.382683 -0.100000 0.923880
v 0.368258 0.123749 0.927269
v 0.195090 -0.100000 0.980785
v 0.196820 0.172501 1.075827
v -0.019784 -0.065899 1.002759
v -0.051500 0.182464 1.014956
v -0.214357 -0.063181 0.979024
v -0.262788 0.470607 1.241569
v -0.400588 -0.062193 0.917815
v -0.396777 0.137596 0.909447
v -0.571320 -0.062971 0.821486
v -0.587135 0.221671 0.849221
v -0.719992 -0.065485 0.693737
v -0.716233 0.134410 0.685444
v -0.840891 -0.069640 0.539478
v -0.833203 0.101707 0.556834
v -0.923880 -0.100000 0.382683
v -0.934707 0.100901 0.383690
v -0.980785 -0.100000 0.195089
v -1.077748 0.111043 0.194669
v -1.000674 -0.092001 0.011616
v -1.035367 0.108999 -0.049589
v -0.980785 -0.100000 -0.195091
v -0.958828 0.033592 -0.217694
v -0.912456 -0.094962 -0.414757
v -0.912676 0.110484 -0.468605
v -0.797280 -0.118969 -0.609597
v -0.794635 0.081519 -0.647115
v -0.693864 -0.125447 -0.740287
v -0.678207 0.078999 -0.756931
v -0.589001 -0.145451 -0.877513
v -0.571424 0.144744 -0.930546
v -0.466901 -0.111925 -1.066922
v -0.412330 0.160911 -0.970698
v -0.330545 -0.118549 -1.064011
v -0.244465 0.181467 -0.967464
vt 1.000000 0.500000
vt 1.000000 1.000000
vt 0.968750 1.000000
vt 0.968750 0.500000
vt 0.937500 1.000000
vt 0.937500 0.500000
vt 0.906250 1.000000
vt 0.906250 0.500000
vt 0.875000 1.000000
vt 0.875000 0.500000
vt 0.843750 1.000000
vt 0.843750 0.500000
vt 0.812500 1.000000
vt 0.812500 0.500000
vt 0.781250 1.000000
vt 0.781250 0.500000
vt 0.750000 1.000000
vt 0.750000 0.500000
vt 0.718750 1.000000
vt 0.718750 0.500000
vt 0.687500 1.000000
vt 0.687500 0.500000
vt 0.656250 1.000000
vt 0.656250 0.500000
vt 0.625000 1.000000
vt 0.625000 0.500000
vt 0.593750 1.000000
vt 0.593750 0.500000
vt 0.562500 1.000000
vt 0.562500 0.500000
vt 0.531250 1.000000
vt 0.531250 0.500000
vt 0.500000 1.000000
vt 0.500000 0.500000
vt 0.468750 1.000000
vt 0.468750 0.500000
vt 0.437500 1.000000
vt 0.437500 0.500000
vt 0.406250 1.000000
vt 0.406250 0.500000
vt 0.375000 1.000000
vt 0.375000 0.500000
vt 0.343750 1.000000
vt 0.343750 0.500000
vt 0.312500 1.000000
vt 0.312500 0.500000
vt 0.281250 1.000000
vt 0.281250 0.500000
vt 0.250000 1.000000
vt 0.250000 0.500000
vt 0.218750 1.000000
vt 0.218750 0.500000
vt 0.187500 1.000000
vt 0.187500 0.500000
vt 0.156250 1.000000
vt 0.156250 0.500000
vt 0.125000 1.000000
vt 0.125000 0.500000
vt 0.093750 1.000000
vt 0.093750 0.500000
vt 0.062500 1.000000
vt 0.062500 0.500000
vt 0.296822 0.485388
vt 0.250000 0.490000
vt 0.203179 0.485389
vt 0.158156 0.471731
vt 0.116663 0.449553
vt 0.080295 0.419706
vt 0.050447 0.383337
vt 0.028269 0.341844
vt 0.014612 0.296822
vt 0.010000 0.250000
vt 0.014611 0.203179
vt 0.028269 0.158156
vt 0.050447 0.116663
vt 0.080294 0.080294
vt 0.116663 0.050447
vt 0.158156 0.028269
vt 0.203178 0.014612
vt 0.250000 0.010000
vt 0.296822 0.014612
vt 0.341844 0.028269
vt 0.383337 0.050447
vt 0.419706 0.080294
vt 0.449553 0.116663
vt 0.471731 0.158156
vt 0.485388 0.203178
vt 0.490000 0.250000
vt 0.485388 0.296822
vt 0.471731 0.341844
vt 0.449553 0.383337
vt 0.419706 0.419706
vt 0.383337 0.449553
vt 0.341844 0.471731
vt 0.031250 1.000000
vt 0.031250 0.500000
vt 0.000000 1.000000
vt 0.000000 0.500000
vt 0.750000 0.490000
vt 0.796822 0.485388
vt 0.841844 0.471731
vt 0.883337 0.449553
vt 0.919706 0.419706
vt 0.949553 0.383337
vt 0.971731 0.341844
vt 0.985388 0.296822
vt 0.990000 0.250000
vt 0.985388 0.203178
vt 0.971731 0.158156
vt 0.949553 0.116663
vt 0.919706 0.080294
vt 0.883337 0.050447
vt 0.841844 0.028269
vt 0.796822 0.014612
vt 0.750000 0.010000
vt 0.703178 0.014612
vt 0.658156 0.028269
vt 0.616663 0.050447
vt 0.580294 0.080294
vt 0.550447 0.116663
vt 0.528269 0.158156
vt 0.514611 0.203179
vt 0.510000 0.250000
vt 0.514612 0.296822
vt 0.528269 0.341844
vt 0.550447 0.383337
vt 0.580295 0.419706
vt 0.616663 0.449553
vt 0.658156 0.471731
vt 0.703179 0.485389
vn 0.2255 0.1021 -0.9689
vn 0.5423 -0.0967 -0.8346
vn 0.4402 -0.1405 -0.8868
vn 0.7245 -0.0355 -0.6883
vn 0.6965 -0.0161 -0.7174
vn 0.6371 -0.2080 -0.7422
vn 0.9454 -0.2994 -0.1285
vn 0.9889 -0.1464 -0.0249
vn 0.9474 -0.3182 -0.0335
vn 0.8389 -0.2345 0.4913
vn 0.9350 -0.0697 0.3478
vn 0.7888 -0.1526 0.5954
vn 0.7056 -0.3266 0.6289
vn 0.1784 -0.2598 0.9490
vn 0.4739 -0.1596 0.8660
vn -0.1013 -0.2062 0.9732
vn 0.2469 -0.2985 0.9219
vn -0.6051 -0.2933 0.7402
vn -0.4064 -0.0466 0.9125
vn -0.7161 -0.0458 0.6964
vn -0.7658 0.0079 0.6430
vn -0.8711 -0.0315 0.4901
vn -0.8628 -0.2264 0.4520
vn -0.9488 -0.3113 -0.0542
vn -0.9690 -0.0941 -0.2284
vn -0.9720 0.0094 -0.2348
vn -0.8499 -0.1109 -0.5152
vn -0.7380 -0.0566 -0.6725
vn -0.8247 -0.0242 -0.5651
vn -0.6409 0.1400 -0.7547
vn -0.0090 0.9999 -0.0136
vn 0.0046 0.3179 -0.9481
vn -0.5193 0.2459 -0.8184
vn -0.0213 -0.9996 0.0202
usemtl None
s off
f 1/1/1 2/2/1 4/3/1 3/4/1
f 3/4/2 4/3/2 6/5/2 5/6/2
f 5/6/3 6/5/3 8/7/3 7/8/3
f 7/8/4 8/7/4 10/9/4 9/10/4
f 9/10/5 10/9/5 12/11/5 11/12/5
f 11/12/6 12/11/6 14/13/6 13/14/6
f 13/14/7 14/13/7 16/15/7 15/16/7
f 15/16/8 16/15/8 18/17/8 17/18/8
f 17/18/9 18/17/9 20/19/9 19/20/9
f 19/20/10 20/19/10 22/21/10 21/22/10
f 21/22/11 22/21/11 24/23/11 23/24/11
f 23/24/12 24/23/12 26/25/12 25/26/12
f 25/26/13 26/25/13 28/27/13 27/28/13
f 27/28/14 28/27/14 30/29/14 29/30/14
f 29/30/15 30/29/15 32/31/15 31/32/15
f 31/32/16 32/31/16 34/33/16 33/34/16
f 33/34/17 34/33/17 36/35/17 35/36/17
f 35/36/18 36/35/18 38/37/18 37/38/18
f 37/38/19 38/37/19 40/39/19 39/40/19
f 39/40/20 40/39/20 42/41/20 41/42/20
f 41/42/21 42/41/21 44/43/21 43/44/21
f 43/44/22 44/43/22 46/45/22 45/46/22
f 45/46/23 46/45/23 48/47/23 47/48/23
f 47/48/24 48/47/24 50/49/24 49/50/24
f 49/50/25 50/49/25 52/51/25 51/52/25
f 51/52/26 52/51/26 54/53/26 53/54/26
f 53/54/27 54/53/27 56/55/27 55/56/27
f 55/56/28 56/55/28 58/57/28 57/58/28
f 57/58/29 58/57/29 60/59/29 59/60/29
f 59/60/30 60/59/30 62/61/30 61/62/30
f 4/63/31 2/64/31 64/65/31 62/66/31 60/67/31 58/68/31 56/69/31 54/70/31 52/71/31 50/72/31 48/73/31 46/74/31 44/75/31 42/76/31 40/77/31 38/78/31 36/79/31 34/80/31 32/81/31 30/82/31 28/83/31 26/84/31 24/85/31 22/86/31 20/87/31 18/88/31 16/89/31 14/90/31 12/91/31 10/92/31 8/93/31 6/94/31
f 61/62/32 62/61/32 64/95/32 63/96/32
f 63/96/33 64/95/33 2/97/33 1/98/33
f 1/99/34 3/100/34 5/101/34 7/102/34 9/103/34 11/104/34 13/105/34 15/106/34 17/107/34 19/108/34 21/109/34 23/110/34 25/111/34 27/112/34 29/113/34 31/114/34 33/115/34 35/116/34 37/117/34 39/118/34 41/119/34 43/120/34 45/121/34 47/122/34 49/123/34 51/124/34 53/125/34 55/126/34 57/127/34 59/128/34 61/129/34 63/130/34
